<svg width="1500" height="1500" viewBox="0 0 1500 1500" fill="none" xmlns="http://www.w3.org/2000/svg">
<rect width="1500" height="1500" fill="#0A0A0A"/>
<path d="M1193.48 288H306.48C243.807 288 193 338.828 193 401.529V729.249C193 791.949 243.807 842.778 306.48 842.778H1193.48C1256.16 842.778 1306.96 791.949 1306.96 729.249V401.529C1306.96 338.828 1256.16 288 1193.48 288Z" fill="white"/>
<path d="M431.676 731.965C406.357 731.965 385.153 725.647 368.035 712.982C350.917 700.317 337.972 681.762 329.199 657.261C320.425 632.76 316.025 602.426 316.025 566.232V565.775C316.025 529.895 320.425 499.676 329.199 475.089C337.972 450.531 350.917 431.833 368.035 419.025C385.153 406.217 406.357 399.813 431.676 399.813C456.995 399.813 478 406.131 495.203 418.797C512.407 431.462 525.352 450.131 534.039 474.86C542.755 499.59 547.099 529.895 547.099 565.775V566.232C547.099 602.426 542.755 632.817 534.039 657.461C525.323 682.105 512.378 700.688 495.203 713.182C478.028 725.676 456.824 731.937 431.676 731.937V731.965ZM431.676 667.41C440.449 667.41 447.794 663.922 453.681 656.918C459.567 649.914 463.94 638.935 466.855 623.983C469.769 609.031 471.198 589.761 471.198 566.232V565.775C471.198 542.389 469.741 523.234 466.855 508.253C463.968 493.272 459.51 482.237 453.566 475.089C447.622 467.942 440.306 464.368 431.676 464.368C423.046 464.368 415.559 467.942 409.672 475.089C403.785 482.237 399.355 493.301 396.383 508.253C393.411 523.205 391.925 542.389 391.925 565.775V566.232C391.925 589.904 393.411 609.202 396.383 624.069C399.355 638.964 403.756 649.914 409.557 656.889C415.359 663.894 422.732 667.382 431.648 667.382L431.676 667.41Z" fill="black"/>
<path d="M708.931 565.889H708.017L707.874 404.73H779.231V727.019H719.162L604.282 497.846L638.003 532.468H617.913L618.142 727.019H552.729L558.444 404.73H628.401L708.96 565.889H708.931Z" fill="black"/>
<path d="M787.661 727.048V404.73H963.725V467.484H867.734V535.842H958.838V593.678H867.734V664.265H963.725V727.019H787.661V727.048Z" fill="black"/>
<path d="M1069.32 399.842C1087.78 399.842 1103.81 403.616 1117.44 411.135C1131.07 418.654 1142.25 429.46 1151.05 443.526C1159.82 457.592 1166.34 474.546 1170.59 494.33C1174.82 514.142 1176.97 536.242 1176.97 560.657V563.573C1176.97 600.368 1172.74 631.216 1164.25 656.146C1155.76 681.076 1143.48 699.974 1127.41 712.753C1111.35 725.561 1091.98 731.965 1069.37 731.965C1051.97 731.965 1036.6 728.506 1023.28 721.587C1009.96 714.669 999.161 704.777 990.902 691.883C982.643 679.018 977.471 663.636 975.384 645.768L974.499 637.048H1044.17L1044.63 643.538C1045.66 649.342 1047.34 654.373 1049.66 658.605C1051.97 662.836 1054.91 666.095 1058.49 668.325C1062.06 670.555 1066.29 671.67 1071.2 671.67C1078.49 671.67 1084.72 668.439 1089.84 661.95C1094.95 655.46 1098.98 645.882 1101.9 633.132C1104.81 620.381 1106.61 604.742 1107.35 586.102C1107.5 583.272 1107.64 580.441 1107.81 577.611C1107.95 574.781 1108.04 571.95 1108.04 569.12L1098.89 510.826C1098.89 500.248 1097.69 491.214 1095.32 483.695C1092.95 476.176 1089.64 470.372 1085.38 466.284C1081.15 462.195 1076.12 460.137 1070.32 460.137C1064.52 460.137 1059.69 462.195 1055.37 466.284C1051.06 470.372 1047.71 476.261 1045.31 483.923C1042.94 491.585 1041.74 500.648 1041.74 511.055V511.512C1041.74 521.947 1042.88 530.896 1045.2 538.415C1047.51 545.934 1050.8 551.737 1055.14 555.826C1059.46 559.914 1064.6 561.972 1070.55 561.972C1076.49 561.972 1081.15 559.885 1085.41 555.711C1089.64 551.537 1092.95 545.648 1095.35 538.072C1097.72 530.467 1098.92 521.547 1098.92 511.255V496.303H1112.1V574.037H1106.52C1103.7 581.785 1099.49 588.932 1093.92 595.479C1088.35 602.026 1081.46 607.287 1073.26 611.232C1065.06 615.177 1055.77 617.15 1045.34 617.15C1029.57 617.15 1015.99 612.947 1004.59 604.542C993.217 596.137 984.5 584.244 978.471 568.92C972.441 553.596 969.44 535.556 969.44 514.857V514.4C969.44 490.871 973.584 470.515 981.843 453.304C990.102 436.093 1001.73 422.885 1016.79 413.651C1031.82 404.416 1049.4 399.813 1069.49 399.813L1069.32 399.842Z" fill="black"/>
<path d="M962.325 563.088L832.356 554.025C811.78 552.595 795.491 536.099 794.263 515.515L787.69 404.759H779.26L772.458 516.058C771.201 536.414 755.198 552.767 734.879 554.453L630.201 563.116V566.118L734.851 574.752C755.198 576.439 771.201 592.821 772.43 613.205L779.288 727.076H787.718L794.32 613.748C795.52 593.135 811.837 576.639 832.413 575.181L962.353 566.118V563.116L962.325 563.088Z" fill="white"/>
<path d="M190 1120.2V913.023H223.266V1120.22H190V1120.2ZM204.128 941.906V913.023H311.433V941.906H204.128ZM204.128 1034.82V1006.24H301.087V1034.82H204.128Z" fill="white"/>
<path d="M390.827 1123.96C376.392 1123.96 363.896 1120.66 353.338 1114.07C342.78 1107.48 334.833 1097.81 329.497 1085.03C324.16 1072.26 321.492 1056.57 321.492 1037.95C321.492 1019.32 324.371 1002.69 330.13 989.916C335.889 977.146 343.99 967.678 354.451 961.513C364.913 955.349 376.93 952.257 390.54 952.257C404.149 952.257 416.992 955.445 427.242 961.84C437.493 968.235 445.555 977.741 451.41 990.416C457.264 1003.07 460.201 1018.93 460.201 1037.98C460.201 1057.03 457.226 1073.51 451.256 1086.17C445.286 1098.82 437.128 1108.29 426.781 1114.57C416.435 1120.85 404.457 1123.98 390.847 1123.98L390.827 1123.96ZM391.135 1097.29C398.871 1097.29 405.301 1095.1 410.427 1090.7C415.552 1086.3 419.525 1079.77 422.347 1071.07C425.169 1062.39 426.589 1051.87 426.589 1039.52C426.589 1025.92 425.073 1014.73 422.04 1005.93C419.007 997.137 414.88 990.493 409.64 985.999C404.418 981.505 397.815 979.258 389.868 979.258C382.746 979.258 376.584 981.409 371.363 985.692C366.122 989.974 362.149 996.427 359.442 1004.99C356.716 1013.58 355.373 1024.56 355.373 1037.95C355.373 1057.4 358.502 1072.17 364.779 1082.21C371.056 1092.26 379.847 1097.29 391.135 1097.29Z" fill="white"/>
<path d="M526.696 1123.96C510.802 1123.96 498.92 1118.2 491.088 1106.7C483.237 1095.19 479.321 1077.18 479.321 1052.7V955.695H512.894V1048.62C512.894 1064.31 514.929 1075.93 519.018 1083.46C523.087 1090.99 529.211 1094.75 537.369 1094.75C542.59 1094.75 547.351 1093.14 551.651 1089.89C555.931 1086.65 559.54 1082.21 562.477 1076.55C565.414 1070.9 567.698 1064.04 569.388 1055.98C571.058 1047.93 571.998 1038.87 572.21 1028.82V955.676H605.783V1047.34L606.09 1120.16H576.912L579.101 1064.6H575.031C572.517 1078.62 569.234 1090.14 565.145 1099.13C561.076 1108.14 555.835 1114.51 549.462 1118.28C543.07 1122.04 535.507 1123.92 526.715 1123.92L526.696 1123.96Z" fill="white"/>
<path d="M633.368 1120.2V1023.5L633.061 955.695H662.238L660.357 1012.19H664.753C666.634 998.386 669.667 986.978 673.852 977.972C678.037 968.984 683.527 962.435 690.322 958.345C697.117 954.274 705.218 952.219 714.643 952.219C729.904 952.219 741.479 958.134 749.311 969.963C757.162 981.793 761.078 999.634 761.078 1023.49V1120.18H727.812V1027.58C727.812 1011.89 725.777 1000.33 721.688 992.893C717.619 985.461 711.495 981.755 703.337 981.755C695.179 981.755 689.17 984.635 684.045 990.397C678.92 996.158 674.831 1004.17 671.798 1014.42C668.765 1024.68 667.133 1036.29 666.941 1049.26V1120.2H633.368Z" fill="white"/>
<path d="M837.65 1123.96C826.363 1123.96 816.516 1120.77 808.146 1114.38C799.777 1108 793.193 1098.32 788.374 1085.34C783.556 1072.36 781.157 1056.57 781.157 1037.95C781.157 1019.32 783.46 1004.26 788.067 991.491C792.674 978.721 799.105 969.003 807.359 962.301C815.613 955.599 825.288 952.257 836.383 952.257C845.789 952.257 853.64 954.408 859.917 958.691C866.195 962.973 871.32 969.157 875.293 977.204C879.267 985.269 882.204 994.622 884.085 1005.3L888.788 1005.61C887.329 997.445 886.178 989.763 885.333 982.542C884.488 975.321 883.816 968.523 883.298 962.128C882.78 955.752 882.511 950.145 882.511 945.325V902H916.085L915.778 1041.69L916.085 1120.18H886.907L888.481 1073.4H884.085C881.993 1083.86 879.018 1092.91 875.14 1100.55C871.262 1108.2 866.252 1113.99 860.071 1117.97C853.909 1121.95 846.423 1123.94 837.631 1123.94L837.65 1123.96ZM846.442 1095.41C852.508 1095.41 857.729 1093.68 862.125 1090.22C866.521 1086.76 870.168 1082.42 873.105 1077.2C876.023 1071.98 878.23 1066.12 879.689 1059.63C881.148 1053.14 881.878 1046.97 881.878 1041.11V1037.35C881.878 1032.53 881.455 1027.73 880.63 1022.91C879.785 1018.09 878.538 1013.23 876.868 1008.31C875.197 1003.4 872.952 998.904 870.13 994.814C867.308 990.742 863.949 987.439 860.09 984.924C856.213 982.408 851.778 981.16 846.749 981.16C840.683 981.16 835.251 983.406 830.433 987.9C825.614 992.394 821.967 998.885 819.453 1007.35C816.938 1015.82 815.69 1026.46 815.69 1039.21C815.69 1051.14 816.995 1061.34 819.606 1069.83C822.217 1078.29 825.826 1084.69 830.433 1088.97C835.04 1093.25 840.357 1095.41 846.442 1095.41Z" fill="white"/>
<path d="M1007.4 1123.96C995.268 1123.96 984.691 1121.96 975.707 1117.99C966.705 1114.01 959.391 1108.37 953.747 1101.03C948.104 1093.71 943.958 1084.92 941.347 1074.66C938.736 1064.41 937.431 1053.12 937.431 1040.77C937.431 1028.42 938.736 1017.22 941.347 1006.55C943.958 995.87 947.989 986.46 953.421 978.298C958.854 970.136 965.86 963.76 974.441 959.151C983.021 954.542 993.157 952.238 1004.89 952.238C1015.96 952.238 1025.64 954.235 1033.91 958.21C1042.16 962.186 1048.81 968.043 1053.83 975.782C1058.86 983.521 1062.47 992.893 1064.66 1003.88C1066.85 1014.86 1067.43 1027.15 1066.39 1040.77L959.391 1042.34V1022.56L1043.49 1020.99L1035.64 1032.91C1036.27 1020.99 1035.43 1011.1 1033.12 1003.24C1030.82 995.39 1027.33 989.532 1022.6 985.672C1017.9 981.793 1011.99 979.873 1004.87 979.873C997.341 979.873 990.911 982.235 985.574 986.94C980.238 991.645 976.36 998.405 973.961 1007.18C971.561 1015.98 970.352 1026.54 970.352 1038.89C970.352 1058.55 973.327 1073.32 979.297 1083.15C985.267 1092.99 994.615 1097.9 1007.38 1097.9C1012.81 1097.9 1017.42 1097.08 1021.18 1095.39C1024.94 1093.71 1028.09 1091.26 1030.59 1088.01C1033.1 1084.77 1035.02 1081 1036.39 1076.72C1037.75 1072.44 1038.54 1067.98 1038.75 1063.37L1068.87 1067.44C1068.65 1074.97 1067.29 1082.19 1064.8 1089.11C1062.3 1096.02 1058.58 1102.09 1053.66 1107.31C1048.75 1112.55 1042.47 1116.63 1034.83 1119.56C1027.19 1122.48 1018.03 1123.96 1007.38 1123.96H1007.4Z" fill="white"/>
<path d="M1088.37 1120.2V1032.93L1088.06 955.714H1117.87L1115.99 1017.24H1120.06C1121.94 1002.8 1124.71 990.819 1128.37 981.294C1132.04 971.769 1136.95 964.663 1143.11 959.939C1149.28 955.234 1156.34 952.872 1164.29 952.872C1166.38 952.872 1168.47 953.026 1170.56 953.352C1172.66 953.659 1174.96 954.024 1177.48 954.447L1175.9 991.492C1173.6 990.243 1171.24 989.456 1168.84 989.13C1166.44 988.822 1163.98 988.649 1161.47 988.649C1154.34 988.649 1148.03 991.165 1142.48 996.177C1136.93 1001.21 1132.48 1008.26 1129.14 1017.36C1125.8 1026.46 1123.5 1037.5 1122.23 1050.49V1120.18H1088.35L1088.37 1120.2Z" fill="white"/>
<path d="M1248.08 1123.96C1236.79 1123.96 1227.1 1122.6 1219.05 1119.89C1210.99 1117.16 1204.25 1113.3 1198.82 1108.27C1193.39 1103.24 1189.61 1097.29 1187.53 1090.37C1185.44 1083.46 1184.71 1075.93 1185.35 1067.77L1213.91 1063.07C1213.49 1069.98 1214.58 1076.09 1217.21 1081.42C1219.82 1086.76 1223.85 1090.89 1229.29 1093.83C1234.72 1096.77 1241.32 1098.23 1249.06 1098.23C1258.46 1098.23 1265.68 1096.4 1270.71 1092.74C1275.74 1089.07 1278.23 1084 1278.23 1077.51C1278.23 1072.07 1276.78 1067.83 1273.84 1064.79C1270.9 1061.76 1266.62 1059.09 1260.98 1056.79C1255.33 1054.48 1248.54 1051.97 1240.59 1049.26C1234.31 1047.38 1227.88 1045.22 1221.3 1042.82C1214.72 1040.42 1208.69 1037.33 1203.26 1033.57C1197.82 1029.8 1193.52 1025.14 1190.39 1019.61C1187.27 1014.06 1185.69 1007.32 1185.69 999.365C1185.69 989.955 1188.05 981.678 1192.76 974.572C1197.46 967.467 1204.22 961.975 1212.99 958.095C1221.78 954.216 1232.64 952.296 1245.62 952.296C1258.6 952.296 1268.85 954.389 1277.62 958.575C1286.41 962.762 1293.3 968.773 1298.33 976.627C1303.36 984.482 1305.55 994.161 1304.92 1005.66L1276.05 1011.31C1276.26 1004.61 1275.2 998.808 1272.92 993.892C1270.61 988.976 1267 985.096 1262.09 982.273C1257.18 979.45 1251.26 978.029 1244.35 978.029C1235.98 978.029 1229.4 979.911 1224.58 983.675C1219.76 987.439 1217.36 992.144 1217.36 997.81C1217.36 1003.47 1218.94 1007.6 1222.07 1010.83C1225.2 1014.08 1229.55 1016.69 1235.08 1018.68C1240.63 1020.68 1246.95 1022.81 1254.07 1025.12C1261.17 1027.21 1268.08 1029.61 1274.78 1032.34C1281.48 1035.07 1287.54 1038.2 1292.98 1041.75C1298.41 1045.3 1302.71 1049.91 1305.84 1055.56C1308.97 1061.2 1310.54 1068.12 1310.54 1076.28C1310.54 1086.11 1308.14 1094.54 1303.32 1101.55C1298.51 1108.56 1291.44 1114.05 1282.15 1118.03C1272.84 1122 1261.5 1124 1248.1 1124L1248.08 1123.96Z" fill="white"/>
</svg>
