<svg width="1500" height="1500" viewBox="0 0 1500 1500" fill="none" xmlns="http://www.w3.org/2000/svg">
<rect width="1500" height="1500" rx="300" fill="#0A0A0A"/>
<path d="M1193.48 337H306.48C243.807 337 193 387.828 193 450.529V778.249C193 840.949 243.807 891.778 306.48 891.778H1193.48C1256.16 891.778 1306.96 840.949 1306.96 778.249V450.529C1306.96 387.828 1256.16 337 1193.48 337Z" fill="white"/>
<path d="M431.676 780.965C406.357 780.965 385.153 774.647 368.035 761.982C350.917 749.317 337.972 730.762 329.199 706.261C320.425 681.76 316.025 651.426 316.025 615.232V614.775C316.025 578.895 320.425 548.676 329.199 524.089C337.972 499.531 350.917 480.833 368.035 468.025C385.153 455.217 406.357 448.813 431.676 448.813C456.995 448.813 478 455.131 495.203 467.797C512.407 480.462 525.352 499.131 534.039 523.86C542.755 548.59 547.099 578.895 547.099 614.775V615.232C547.099 651.426 542.755 681.817 534.039 706.461C525.323 731.105 512.378 749.688 495.203 762.182C478.028 774.676 456.824 780.937 431.676 780.937V780.965ZM431.676 716.41C440.449 716.41 447.794 712.922 453.681 705.918C459.567 698.914 463.94 687.935 466.855 672.983C469.769 658.031 471.198 638.761 471.198 615.232V614.775C471.198 591.389 469.741 572.234 466.855 557.253C463.968 542.272 459.51 531.237 453.566 524.089C447.622 516.942 440.306 513.368 431.676 513.368C423.046 513.368 415.559 516.942 409.672 524.089C403.785 531.237 399.355 542.301 396.383 557.253C393.411 572.205 391.925 591.389 391.925 614.775V615.232C391.925 638.904 393.411 658.202 396.383 673.069C399.355 687.964 403.756 698.914 409.557 705.889C415.359 712.894 422.732 716.382 431.648 716.382L431.676 716.41Z" fill="black"/>
<path d="M708.931 614.889H708.017L707.874 453.73H779.231V776.019H719.162L604.282 546.846L638.003 581.468H617.913L618.142 776.019H552.729L558.444 453.73H628.401L708.96 614.889H708.931Z" fill="black"/>
<path d="M787.661 776.048V453.73H963.725V516.484H867.734V584.842H958.838V642.678H867.734V713.265H963.725V776.019H787.661V776.048Z" fill="black"/>
<path d="M1069.32 448.842C1087.78 448.842 1103.81 452.616 1117.44 460.135C1131.07 467.654 1142.25 478.46 1151.05 492.526C1159.82 506.592 1166.34 523.546 1170.59 543.33C1174.82 563.142 1176.97 585.242 1176.97 609.657V612.573C1176.97 649.368 1172.74 680.216 1164.25 705.146C1155.76 730.076 1143.48 748.974 1127.41 761.753C1111.35 774.561 1091.98 780.965 1069.37 780.965C1051.97 780.965 1036.6 777.506 1023.28 770.587C1009.96 763.669 999.161 753.777 990.902 740.883C982.643 728.018 977.471 712.636 975.384 694.768L974.499 686.048H1044.17L1044.63 692.538C1045.66 698.342 1047.34 703.373 1049.66 707.605C1051.97 711.836 1054.91 715.095 1058.49 717.325C1062.06 719.555 1066.29 720.67 1071.2 720.67C1078.49 720.67 1084.72 717.439 1089.84 710.95C1094.95 704.46 1098.98 694.882 1101.9 682.132C1104.81 669.381 1106.61 653.742 1107.35 635.102C1107.5 632.272 1107.64 629.441 1107.81 626.611C1107.95 623.781 1108.04 620.95 1108.04 618.12L1098.89 559.826C1098.89 549.248 1097.69 540.214 1095.32 532.695C1092.95 525.176 1089.64 519.372 1085.38 515.284C1081.15 511.195 1076.12 509.137 1070.32 509.137C1064.52 509.137 1059.69 511.195 1055.37 515.284C1051.06 519.372 1047.71 525.261 1045.31 532.923C1042.94 540.585 1041.74 549.648 1041.74 560.055V560.512C1041.74 570.947 1042.88 579.896 1045.2 587.415C1047.51 594.934 1050.8 600.737 1055.14 604.826C1059.46 608.914 1064.6 610.972 1070.55 610.972C1076.49 610.972 1081.15 608.885 1085.41 604.711C1089.64 600.537 1092.95 594.648 1095.35 587.072C1097.72 579.467 1098.92 570.547 1098.92 560.255V545.303H1112.1V623.037H1106.52C1103.7 630.785 1099.49 637.932 1093.92 644.479C1088.35 651.026 1081.46 656.287 1073.26 660.232C1065.06 664.177 1055.77 666.15 1045.34 666.15C1029.57 666.15 1015.99 661.947 1004.59 653.542C993.217 645.137 984.5 633.244 978.471 617.92C972.441 602.596 969.44 584.556 969.44 563.857V563.4C969.44 539.871 973.584 519.515 981.843 502.304C990.102 485.093 1001.73 471.885 1016.79 462.651C1031.82 453.416 1049.4 448.813 1069.49 448.813L1069.32 448.842Z" fill="black"/>
<path d="M962.325 612.088L832.356 603.025C811.78 601.595 795.491 585.099 794.263 564.515L787.69 453.759H779.26L772.458 565.058C771.201 585.414 755.198 601.767 734.879 603.453L630.201 612.116V615.118L734.851 623.752C755.198 625.439 771.201 641.821 772.43 662.205L779.288 776.076H787.718L794.32 662.748C795.52 642.135 811.837 625.639 832.413 624.181L962.353 615.118V612.116L962.325 612.088Z" fill="white"/>
<path d="M190 1159.2V952.023H223.266V1159.22H190V1159.2ZM204.128 980.906V952.023H311.433V980.906H204.128ZM204.128 1073.82V1045.24H301.087V1073.82H204.128Z" fill="white"/>
<path d="M390.827 1162.96C376.392 1162.96 363.896 1159.66 353.338 1153.07C342.78 1146.48 334.833 1136.81 329.497 1124.03C324.16 1111.26 321.492 1095.57 321.492 1076.95C321.492 1058.32 324.371 1041.69 330.13 1028.92C335.889 1016.15 343.99 1006.68 354.451 1000.51C364.913 994.349 376.93 991.257 390.54 991.257C404.149 991.257 416.992 994.445 427.242 1000.84C437.493 1007.23 445.555 1016.74 451.41 1029.42C457.264 1042.07 460.201 1057.93 460.201 1076.98C460.201 1096.03 457.226 1112.51 451.256 1125.17C445.286 1137.82 437.128 1147.29 426.781 1153.57C416.435 1159.85 404.457 1162.98 390.847 1162.98L390.827 1162.96ZM391.135 1136.29C398.871 1136.29 405.301 1134.1 410.427 1129.7C415.552 1125.3 419.525 1118.77 422.347 1110.07C425.169 1101.39 426.589 1090.87 426.589 1078.52C426.589 1064.92 425.073 1053.73 422.04 1044.93C419.007 1036.14 414.88 1029.49 409.64 1025C404.418 1020.51 397.815 1018.26 389.868 1018.26C382.746 1018.26 376.584 1020.41 371.363 1024.69C366.122 1028.97 362.149 1035.43 359.442 1043.99C356.716 1052.58 355.373 1063.56 355.373 1076.95C355.373 1096.4 358.502 1111.17 364.779 1121.21C371.056 1131.26 379.847 1136.29 391.135 1136.29Z" fill="white"/>
<path d="M526.696 1162.96C510.802 1162.96 498.92 1157.2 491.088 1145.7C483.237 1134.19 479.321 1116.18 479.321 1091.7V994.695H512.894V1087.62C512.894 1103.31 514.929 1114.93 519.018 1122.46C523.087 1129.99 529.211 1133.75 537.369 1133.75C542.59 1133.75 547.351 1132.14 551.651 1128.89C555.931 1125.65 559.54 1121.21 562.477 1115.55C565.414 1109.9 567.698 1103.04 569.388 1094.98C571.058 1086.93 571.998 1077.87 572.21 1067.82V994.676H605.783V1086.34L606.09 1159.16H576.912L579.101 1103.6H575.031C572.517 1117.62 569.234 1129.14 565.145 1138.13C561.076 1147.14 555.835 1153.51 549.462 1157.28C543.07 1161.04 535.507 1162.92 526.715 1162.92L526.696 1162.96Z" fill="white"/>
<path d="M633.368 1159.2V1062.5L633.061 994.695H662.238L660.357 1051.19H664.753C666.634 1037.39 669.667 1025.98 673.852 1016.97C678.037 1007.98 683.527 1001.44 690.322 997.345C697.117 993.274 705.218 991.219 714.643 991.219C729.904 991.219 741.479 997.134 749.311 1008.96C757.162 1020.79 761.078 1038.63 761.078 1062.49V1159.18H727.812V1066.58C727.812 1050.89 725.777 1039.33 721.688 1031.89C717.619 1024.46 711.495 1020.75 703.337 1020.75C695.179 1020.75 689.17 1023.64 684.045 1029.4C678.92 1035.16 674.831 1043.17 671.798 1053.42C668.765 1063.68 667.133 1075.29 666.941 1088.26V1159.2H633.368Z" fill="white"/>
<path d="M837.65 1162.96C826.363 1162.96 816.516 1159.77 808.146 1153.38C799.777 1147 793.193 1137.32 788.374 1124.34C783.556 1111.36 781.157 1095.57 781.157 1076.95C781.157 1058.32 783.46 1043.26 788.067 1030.49C792.674 1017.72 799.105 1008 807.359 1001.3C815.613 994.599 825.288 991.257 836.383 991.257C845.789 991.257 853.64 993.408 859.917 997.691C866.194 1001.97 871.32 1008.16 875.293 1016.2C879.267 1024.27 882.204 1033.62 884.085 1044.3L888.788 1044.61C887.329 1036.44 886.178 1028.76 885.333 1021.54C884.488 1014.32 883.816 1007.52 883.298 1001.13C882.78 994.752 882.511 989.145 882.511 984.325V941H916.085L915.778 1080.69L916.085 1159.18H886.907L888.481 1112.4H884.085C881.993 1122.86 879.017 1131.91 875.14 1139.55C871.262 1147.2 866.252 1152.99 860.071 1156.97C853.909 1160.95 846.423 1162.94 837.631 1162.94L837.65 1162.96ZM846.442 1134.41C852.508 1134.41 857.729 1132.68 862.125 1129.22C866.521 1125.76 870.168 1121.42 873.105 1116.2C876.023 1110.98 878.23 1105.12 879.689 1098.63C881.148 1092.14 881.878 1085.97 881.878 1080.11V1076.35C881.878 1071.53 881.455 1066.73 880.63 1061.91C879.785 1057.09 878.537 1052.23 876.867 1047.31C875.197 1042.4 872.951 1037.9 870.13 1033.81C867.308 1029.74 863.949 1026.44 860.09 1023.92C856.213 1021.41 851.778 1020.16 846.749 1020.16C840.683 1020.16 835.251 1022.41 830.433 1026.9C825.614 1031.39 821.967 1037.89 819.453 1046.35C816.938 1054.82 815.69 1065.46 815.69 1078.21C815.69 1090.14 816.995 1100.34 819.606 1108.83C822.217 1117.29 825.826 1123.69 830.433 1127.97C835.04 1132.25 840.357 1134.41 846.442 1134.41Z" fill="white"/>
<path d="M1007.4 1162.96C995.268 1162.96 984.691 1160.96 975.708 1156.99C966.705 1153.01 959.391 1147.37 953.747 1140.03C948.104 1132.71 943.958 1123.92 941.347 1113.66C938.736 1103.41 937.431 1092.12 937.431 1079.77C937.431 1067.42 938.736 1056.22 941.347 1045.55C943.958 1034.87 947.989 1025.46 953.421 1017.3C958.854 1009.14 965.86 1002.76 974.441 998.151C983.021 993.542 993.157 991.238 1004.89 991.238C1015.96 991.238 1025.64 993.235 1033.91 997.21C1042.16 1001.19 1048.81 1007.04 1053.83 1014.78C1058.86 1022.52 1062.47 1031.89 1064.66 1042.88C1066.85 1053.86 1067.43 1066.15 1066.39 1079.77L959.391 1081.34V1061.56L1043.49 1059.99L1035.64 1071.91C1036.27 1059.99 1035.43 1050.1 1033.12 1042.24C1030.82 1034.39 1027.33 1028.53 1022.6 1024.67C1017.9 1020.79 1011.99 1018.87 1004.87 1018.87C997.341 1018.87 990.911 1021.23 985.574 1025.94C980.238 1030.64 976.36 1037.4 973.961 1046.18C971.561 1054.98 970.352 1065.54 970.352 1077.89C970.352 1097.55 973.327 1112.32 979.297 1122.15C985.267 1131.99 994.615 1136.9 1007.38 1136.9C1012.81 1136.9 1017.42 1136.08 1021.18 1134.39C1024.95 1132.71 1028.09 1130.26 1030.59 1127.01C1033.1 1123.77 1035.02 1120 1036.39 1115.72C1037.75 1111.44 1038.54 1106.98 1038.75 1102.37L1068.87 1106.44C1068.65 1113.97 1067.29 1121.19 1064.8 1128.11C1062.3 1135.02 1058.58 1141.09 1053.66 1146.31C1048.75 1151.55 1042.47 1155.63 1034.83 1158.56C1027.19 1161.48 1018.03 1162.96 1007.38 1162.96H1007.4Z" fill="white"/>
<path d="M1088.37 1159.2V1071.93L1088.06 994.714H1117.87L1115.99 1056.24H1120.06C1121.94 1041.8 1124.71 1029.82 1128.37 1020.29C1132.04 1010.77 1136.95 1003.66 1143.11 998.939C1149.28 994.234 1156.34 991.872 1164.29 991.872C1166.38 991.872 1168.47 992.026 1170.56 992.352C1172.66 992.659 1174.96 993.024 1177.48 993.447L1175.9 1030.49C1173.6 1029.24 1171.24 1028.46 1168.84 1028.13C1166.44 1027.82 1163.98 1027.65 1161.47 1027.65C1154.34 1027.65 1148.03 1030.17 1142.48 1035.18C1136.93 1040.21 1132.48 1047.26 1129.14 1056.36C1125.8 1065.46 1123.5 1076.5 1122.23 1089.49V1159.18H1088.35L1088.37 1159.2Z" fill="white"/>
<path d="M1248.08 1162.96C1236.79 1162.96 1227.1 1161.6 1219.05 1158.89C1210.99 1156.16 1204.25 1152.3 1198.82 1147.27C1193.39 1142.24 1189.61 1136.29 1187.53 1129.37C1185.44 1122.46 1184.71 1114.93 1185.35 1106.77L1213.91 1102.07C1213.49 1108.98 1214.58 1115.09 1217.21 1120.42C1219.82 1125.76 1223.85 1129.89 1229.29 1132.83C1234.72 1135.77 1241.32 1137.23 1249.06 1137.23C1258.46 1137.23 1265.68 1135.4 1270.71 1131.74C1275.74 1128.07 1278.23 1123 1278.23 1116.51C1278.23 1111.07 1276.78 1106.83 1273.84 1103.79C1270.9 1100.76 1266.62 1098.09 1260.98 1095.79C1255.33 1093.48 1248.54 1090.97 1240.59 1088.26C1234.31 1086.38 1227.88 1084.22 1221.3 1081.82C1214.72 1079.42 1208.69 1076.33 1203.26 1072.57C1197.82 1068.8 1193.52 1064.14 1190.39 1058.61C1187.27 1053.06 1185.69 1046.32 1185.69 1038.37C1185.69 1028.96 1188.05 1020.68 1192.76 1013.57C1197.46 1006.47 1204.22 1000.97 1212.99 997.095C1221.78 993.216 1232.64 991.296 1245.62 991.296C1258.6 991.296 1268.85 993.389 1277.62 997.575C1286.41 1001.76 1293.3 1007.77 1298.33 1015.63C1303.36 1023.48 1305.55 1033.16 1304.92 1044.66L1276.05 1050.31C1276.26 1043.61 1275.2 1037.81 1272.92 1032.89C1270.61 1027.98 1267 1024.1 1262.09 1021.27C1257.18 1018.45 1251.26 1017.03 1244.35 1017.03C1235.98 1017.03 1229.4 1018.91 1224.58 1022.68C1219.76 1026.44 1217.36 1031.14 1217.36 1036.81C1217.36 1042.47 1218.94 1046.6 1222.07 1049.83C1225.2 1053.08 1229.55 1055.69 1235.08 1057.68C1240.63 1059.68 1246.95 1061.81 1254.07 1064.12C1261.17 1066.21 1268.08 1068.61 1274.78 1071.34C1281.48 1074.07 1287.54 1077.2 1292.98 1080.75C1298.41 1084.3 1302.71 1088.91 1305.84 1094.56C1308.97 1100.2 1310.54 1107.12 1310.54 1115.28C1310.54 1125.11 1308.14 1133.54 1303.32 1140.55C1298.51 1147.56 1291.44 1153.05 1282.15 1157.03C1272.84 1161 1261.5 1163 1248.1 1163L1248.08 1162.96Z" fill="white"/>
</svg>
