<svg width="1500" height="1500" viewBox="0 0 1500 1500" fill="none" xmlns="http://www.w3.org/2000/svg">
<g clip-path="url(#clip0_2_38)">
<path d="M1346.58 187H151.886C67.4719 187 -0.958984 255.46 -0.958984 339.911V781.314C-0.958984 865.764 67.4719 934.225 151.886 934.225H1346.58C1431 934.225 1499.43 865.764 1499.43 781.314V339.911C1499.43 255.46 1431 187 1346.58 187Z" fill="black"/>
<path d="M320.512 784.972C286.409 784.972 257.85 776.462 234.794 759.404C211.738 742.345 194.302 717.354 182.486 684.354C170.669 651.354 164.742 610.498 164.742 561.748V561.132C164.742 512.806 170.669 472.104 182.486 438.989C194.302 405.911 211.738 380.728 234.794 363.477C257.85 346.226 286.409 337.6 320.512 337.6C354.614 337.6 382.904 346.11 406.075 363.169C429.247 380.227 446.683 405.372 458.384 438.68C470.123 471.989 475.974 512.806 475.974 561.132V561.748C475.974 610.498 470.123 651.431 458.384 684.623C446.644 717.816 429.208 742.846 406.075 759.673C382.943 776.501 354.383 784.934 320.512 784.934V784.972ZM320.512 698.024C332.328 698.024 342.22 693.326 350.149 683.892C358.078 674.458 363.967 659.671 367.893 639.532C371.819 619.393 373.744 593.439 373.744 561.748V561.132C373.744 529.634 371.781 503.834 367.893 483.656C364.006 463.479 358.001 448.615 349.995 438.989C341.989 429.362 332.136 424.548 320.512 424.548C308.888 424.548 298.803 429.362 290.874 438.989C282.945 448.615 276.979 463.517 272.976 483.656C268.973 503.795 266.972 529.634 266.972 561.132V561.748C266.972 593.632 268.973 619.624 272.976 639.648C276.979 659.71 282.907 674.458 290.72 683.853C298.534 693.288 308.464 697.985 320.473 697.985L320.512 698.024Z" fill="white"/>
<path d="M693.944 561.286H692.713L692.52 344.223H788.63V778.31H707.724L552.993 469.64L598.412 516.272H571.353L571.661 778.31H483.557L491.255 344.223H585.479L693.983 561.286H693.944Z" fill="white"/>
<path d="M799.984 778.349V344.223H1037.12V428.746H907.834V520.815H1030.54V598.715H907.834V693.788H1037.12V778.31H799.984V778.349Z" fill="white"/>
<path d="M1179.34 337.639C1204.21 337.639 1225.8 342.721 1244.16 352.849C1262.52 362.976 1277.57 377.532 1289.43 396.477C1301.24 415.422 1310.02 438.257 1315.75 464.904C1321.45 491.589 1324.34 521.355 1324.34 554.239V558.167C1324.34 607.725 1318.64 649.274 1307.21 682.852C1295.78 716.43 1279.23 741.883 1257.59 759.096C1235.96 776.347 1209.87 784.972 1179.42 784.972C1155.98 784.972 1135.27 780.313 1117.34 770.994C1099.4 761.676 1084.85 748.352 1073.73 730.986C1062.6 713.658 1055.64 692.941 1052.83 668.874L1051.63 657.13H1145.47L1146.09 665.871C1147.47 673.688 1149.75 680.465 1152.86 686.164C1155.98 691.863 1159.94 696.253 1164.76 699.256C1169.57 702.26 1175.26 703.761 1181.88 703.761C1191.7 703.761 1200.09 699.41 1206.98 690.669C1213.87 681.928 1219.3 669.028 1223.22 651.854C1227.15 634.68 1229.57 613.617 1230.57 588.51C1230.77 584.698 1230.96 580.886 1231.19 577.074C1231.38 573.262 1231.5 569.45 1231.5 565.637L1219.18 487.122C1219.18 472.875 1217.56 460.706 1214.37 450.579C1211.18 440.452 1206.71 432.635 1200.98 427.128C1195.28 421.622 1188.5 418.849 1180.69 418.849C1172.88 418.849 1166.37 421.622 1160.56 427.128C1154.75 432.635 1150.25 440.567 1147.01 450.887C1143.82 461.207 1142.2 473.414 1142.2 487.43V488.046C1142.2 502.101 1143.74 514.154 1146.86 524.281C1149.98 534.408 1154.4 542.225 1160.25 547.732C1166.07 553.238 1172.99 556.011 1181 556.011C1189.01 556.011 1195.28 553.2 1201.01 547.578C1206.71 541.956 1211.18 534.023 1214.41 523.819C1217.6 513.576 1219.22 501.562 1219.22 487.7V467.561H1236.96V572.261H1229.46C1225.65 582.696 1219.99 592.323 1212.48 601.141C1204.98 609.959 1195.7 617.044 1184.66 622.358C1173.61 627.672 1161.1 630.329 1147.05 630.329C1125.8 630.329 1107.52 624.668 1092.16 613.347C1076.84 602.026 1065.11 586.008 1056.98 565.368C1048.86 544.728 1044.82 520.43 1044.82 492.551V491.935C1044.82 460.244 1050.4 432.827 1061.53 409.646C1072.65 386.465 1088.31 368.675 1108.6 356.237C1128.84 343.8 1152.52 337.6 1179.58 337.6L1179.34 337.639Z" fill="white"/>
<path d="M1035.24 557.513L860.183 545.306C832.47 543.381 810.531 521.162 808.876 493.437L800.023 344.262H788.668L779.508 494.169C777.814 521.586 756.26 543.612 728.893 545.884L587.903 557.551V561.594L728.855 573.223C756.26 575.495 777.814 597.56 779.469 625.015L788.707 778.388H800.061L808.953 625.747C810.569 597.983 832.547 575.765 860.26 573.801L1035.28 561.594V557.551L1035.24 557.513Z" fill="black"/>
<path d="M-5 1307.88V1028.84H39.8063V1307.9H-5V1307.88ZM14.0291 1067.74V1028.84H158.557V1067.74H14.0291ZM14.0291 1192.88V1154.39H144.621V1192.88H14.0291Z" fill="black"/>
<path d="M265.493 1312.95C246.05 1312.95 229.219 1308.5 214.999 1299.63C200.778 1290.76 190.074 1277.72 182.887 1260.52C175.699 1243.32 172.105 1222.18 172.105 1197.09C172.105 1172 175.984 1149.6 183.74 1132.4C191.497 1115.2 202.407 1102.45 216.498 1094.15C230.589 1085.85 246.774 1081.68 265.105 1081.68C283.436 1081.68 300.733 1085.97 314.539 1094.59C328.346 1103.2 339.205 1116.01 347.09 1133.08C354.976 1150.12 358.932 1171.49 358.932 1197.15C358.932 1222.81 354.925 1245 346.884 1262.04C338.843 1279.09 327.855 1291.84 313.919 1300.3C299.983 1308.76 283.85 1312.97 265.519 1312.97L265.493 1312.95ZM265.907 1277.02C276.326 1277.02 284.987 1274.07 291.891 1268.15C298.794 1262.23 304.146 1253.43 307.946 1241.71C311.747 1230.02 313.66 1215.85 313.66 1199.22C313.66 1180.9 311.618 1165.82 307.533 1153.98C303.448 1142.13 297.889 1133.18 290.831 1127.13C283.798 1121.07 274.904 1118.05 264.2 1118.05C254.608 1118.05 246.309 1120.95 239.276 1126.71C232.218 1132.48 226.866 1141.17 223.22 1152.71C219.549 1164.27 217.739 1179.07 217.739 1197.09C217.739 1223.3 221.953 1243.19 230.408 1256.72C238.862 1270.24 250.704 1277.02 265.907 1277.02Z" fill="black"/>
<path d="M448.493 1312.95C427.085 1312.95 411.081 1305.19 400.532 1289.7C389.957 1274.2 384.683 1249.94 384.683 1216.96V1086.31H429.903V1211.48C429.903 1232.61 432.644 1248.26 438.151 1258.4C443.632 1268.54 451.88 1273.61 462.868 1273.61C469.9 1273.61 476.312 1271.43 482.104 1267.06C487.869 1262.69 492.73 1256.72 496.686 1249.09C500.642 1241.48 503.718 1232.25 505.994 1221.38C508.243 1210.55 509.51 1198.34 509.794 1184.81V1086.29H555.014V1209.74L555.428 1307.83H516.129L519.076 1233H513.595C510.208 1251.88 505.787 1267.4 500.28 1279.5C494.798 1291.64 487.74 1300.22 479.156 1305.29C470.547 1310.36 460.36 1312.9 448.519 1312.9L448.493 1312.95Z" fill="black"/>
<path d="M592.168 1307.88V1177.64L591.754 1086.31H631.053L628.519 1162.41H634.44C636.974 1143.81 641.059 1128.45 646.695 1116.32C652.332 1104.21 659.726 1095.39 668.879 1089.88C678.031 1084.4 688.942 1081.63 701.637 1081.63C722.191 1081.63 737.782 1089.6 748.33 1105.53C758.905 1121.46 764.179 1145.49 764.179 1177.62V1307.85H719.373V1183.13C719.373 1161.99 716.633 1146.42 711.125 1136.41C705.644 1126.4 697.397 1121.41 686.408 1121.41C675.42 1121.41 667.327 1125.29 660.424 1133.05C653.521 1140.81 648.014 1151.6 643.929 1165.41C639.844 1179.22 637.646 1194.87 637.388 1212.33V1307.88H592.168Z" fill="black"/>
<path d="M867.314 1312.95C852.111 1312.95 838.848 1308.65 827.575 1300.04C816.302 1291.45 807.434 1278.42 800.945 1260.93C794.455 1243.45 791.223 1222.19 791.223 1197.1C791.223 1172.01 794.326 1151.73 800.531 1134.53C806.736 1117.32 815.397 1104.24 826.515 1095.21C837.633 1086.18 850.663 1081.68 865.607 1081.68C878.276 1081.68 888.851 1084.58 897.305 1090.35C905.76 1096.11 912.663 1104.44 918.015 1115.28C923.367 1126.15 927.323 1138.74 929.856 1153.12L936.191 1153.54C934.226 1142.54 932.675 1132.2 931.537 1122.47C930.399 1112.75 929.494 1103.59 928.796 1094.98C928.098 1086.39 927.736 1078.84 927.736 1072.34V1013.99H972.956L972.543 1202.14L972.956 1307.85H933.657L935.777 1244.84H929.856C927.038 1258.94 923.031 1271.12 917.808 1281.42C912.585 1291.71 905.837 1299.52 897.512 1304.88C889.213 1310.23 879.129 1312.92 867.288 1312.92L867.314 1312.95ZM879.155 1274.49C887.325 1274.49 894.358 1272.16 900.278 1267.5C906.199 1262.85 911.112 1257 915.068 1249.97C918.997 1242.93 921.971 1235.04 923.936 1226.3C925.901 1217.56 926.883 1209.25 926.883 1201.36V1196.29C926.883 1189.8 926.314 1183.33 925.203 1176.84C924.065 1170.35 922.384 1163.81 920.135 1157.18C917.886 1150.56 914.861 1144.51 911.06 1139C907.259 1133.52 902.735 1129.07 897.538 1125.68C892.315 1122.29 886.343 1120.61 879.569 1120.61C871.399 1120.61 864.082 1123.64 857.592 1129.69C851.103 1135.74 846.19 1144.48 842.803 1155.89C839.416 1167.3 837.736 1181.63 837.736 1198.8C837.736 1214.86 839.494 1228.6 843.01 1240.03C846.526 1251.44 851.387 1260.05 857.592 1265.82C863.797 1271.59 870.959 1274.49 879.155 1274.49Z" fill="black"/>
<path d="M1095.95 1312.95C1079.61 1312.95 1065.36 1310.26 1053.26 1304.9C1041.14 1299.55 1031.28 1291.94 1023.68 1282.06C1016.08 1272.21 1010.5 1260.36 1006.98 1246.55C1003.47 1232.74 1001.71 1217.53 1001.71 1200.9C1001.71 1184.27 1003.47 1169.19 1006.98 1154.8C1010.5 1140.42 1015.93 1127.75 1023.24 1116.76C1030.56 1105.76 1040 1097.17 1051.56 1090.97C1063.11 1084.76 1076.76 1081.66 1092.56 1081.66C1107.48 1081.66 1120.51 1084.35 1131.65 1089.7C1142.77 1095.05 1151.72 1102.94 1158.49 1113.37C1165.26 1123.79 1170.13 1136.41 1173.07 1151.21C1176.02 1166 1176.8 1182.56 1175.4 1200.9L1031.28 1203.02V1176.38L1144.55 1174.26L1133.98 1190.32C1134.83 1174.26 1133.7 1160.93 1130.59 1150.36C1127.49 1139.78 1122.78 1131.89 1116.42 1126.69C1110.09 1121.46 1102.13 1118.88 1092.53 1118.88C1082.4 1118.88 1073.74 1122.06 1066.55 1128.39C1059.36 1134.73 1054.14 1143.84 1050.91 1155.66C1047.68 1167.5 1046.05 1181.73 1046.05 1198.36C1046.05 1224.85 1050.06 1244.74 1058.1 1257.98C1066.14 1271.23 1078.73 1277.85 1095.92 1277.85C1103.24 1277.85 1109.44 1276.74 1114.51 1274.46C1119.58 1272.21 1123.82 1268.9 1127.18 1264.53C1130.57 1260.16 1133.15 1255.09 1134.99 1249.32C1136.82 1243.55 1137.88 1237.55 1138.17 1231.34L1178.73 1236.82C1178.45 1246.96 1176.61 1256.69 1173.25 1266C1169.89 1275.31 1164.88 1283.49 1158.26 1290.52C1151.64 1297.58 1143.18 1303.07 1132.89 1307.02C1122.6 1310.96 1110.27 1312.95 1095.92 1312.95H1095.95Z" fill="black"/>
<path d="M1205 1307.88V1190.34L1204.59 1086.34H1244.74L1242.21 1169.21H1247.69C1250.22 1149.76 1253.95 1133.62 1258.88 1120.79C1263.82 1107.96 1270.44 1098.39 1278.74 1092.03C1287.04 1085.69 1296.55 1082.51 1307.26 1082.51C1310.08 1082.51 1312.89 1082.72 1315.71 1083.16C1318.53 1083.57 1321.63 1084.06 1325.02 1084.63L1322.9 1134.53C1319.8 1132.84 1316.62 1131.78 1313.39 1131.34C1310.15 1130.93 1306.84 1130.7 1303.46 1130.7C1293.87 1130.7 1285.36 1134.09 1277.89 1140.84C1270.42 1147.61 1264.42 1157.11 1259.92 1169.37C1255.42 1181.63 1252.32 1196.5 1250.61 1213.99V1307.85H1204.98L1205 1307.88Z" fill="black"/>
<path d="M1420.11 1312.95C1404.91 1312.95 1391.86 1311.11 1381.02 1307.46C1370.16 1303.79 1361.09 1298.59 1353.77 1291.82C1346.45 1285.04 1341.36 1277.02 1338.57 1267.71C1335.75 1258.4 1334.77 1248.26 1335.62 1237.26L1374.09 1230.93C1373.52 1240.24 1375 1248.46 1378.54 1255.66C1382.06 1262.85 1387.49 1268.41 1394.8 1272.36C1402.12 1276.32 1411.01 1278.29 1421.43 1278.29C1434.1 1278.29 1443.82 1275.83 1450.6 1270.89C1457.37 1265.95 1460.73 1259.12 1460.73 1250.38C1460.73 1243.06 1458.77 1237.34 1454.81 1233.26C1450.86 1229.17 1445.09 1225.57 1437.49 1222.47C1429.89 1219.37 1420.73 1215.98 1410.03 1212.33C1401.58 1209.8 1392.92 1206.9 1384.05 1203.66C1375.18 1200.43 1367.06 1196.27 1359.74 1191.2C1352.43 1186.13 1346.64 1179.84 1342.42 1172.39C1338.21 1164.92 1336.09 1155.84 1336.09 1145.13C1336.09 1132.46 1339.27 1121.31 1345.6 1111.74C1351.94 1102.17 1361.04 1094.77 1372.85 1089.54C1384.69 1084.32 1399.33 1081.73 1416.81 1081.73C1434.28 1081.73 1448.09 1084.55 1459.9 1090.19C1471.75 1095.83 1481.03 1103.93 1487.8 1114.51C1494.58 1125.08 1497.52 1138.12 1496.67 1153.61L1457.78 1161.22C1458.07 1152.19 1456.65 1144.38 1453.57 1137.76C1450.47 1131.14 1445.61 1125.91 1438.99 1122.11C1432.37 1118.31 1424.41 1116.39 1415.1 1116.39C1403.83 1116.39 1394.96 1118.93 1388.47 1124C1381.98 1129.07 1378.75 1135.4 1378.75 1143.04C1378.75 1150.67 1380.87 1156.23 1385.08 1160.57C1389.3 1164.94 1395.16 1168.46 1402.61 1171.15C1410.08 1173.84 1418.59 1176.71 1428.18 1179.82C1437.75 1182.64 1447.06 1185.87 1456.08 1189.54C1465.1 1193.22 1473.27 1197.43 1480.59 1202.22C1487.91 1207 1493.7 1213.21 1497.91 1220.81C1502.13 1228.42 1504.25 1237.73 1504.25 1248.72C1504.25 1261.97 1501.01 1273.32 1494.52 1282.76C1488.03 1292.2 1478.52 1299.6 1466.01 1304.96C1453.47 1310.31 1438.19 1313 1420.14 1313L1420.11 1312.95Z" fill="black"/>
</g>
<defs>
<clipPath id="clip0_2_38">
<rect width="1500" height="1500" fill="white"/>
</clipPath>
</defs>
</svg>
